<?xml version="1.0" encoding="UTF-8"?>
<svg id="_2" data-name="2" xmlns="http://www.w3.org/2000/svg" viewBox="0 0 239 322">
  <defs>
    <style>
      .cls-1 {
        fill: none;
      }

      .cls-1, .cls-2, .cls-3 {
        stroke-width: 0px;
      }

      .cls-2 {
        fill: #2ec4b6;
      }

      .cls-3 {
        fill: #fff;
      }
    </style>
  </defs>
  <rect class="cls-1" width="239" height="322"/>
  <path class="cls-2" d="M204.79,34.9c-23.55-19.6-69.86-15.56-72.45,17.77,0,0,0,12.85,0,12.85,17.49,12,33.41,34.11,31.18,55.08-2.39,12.99-14.49,60.63-29.02,61.97l6.49-60.03h-8.11l-6.49,60.26h-12.7l-6.49-60.27h-8.11l6.49,60.03c-14.48-1.27-26.64-49.02-29.02-61.97-2.23-21.03,13.81-43.34,31.45-55.23.74-13.19.07-28.39-13.3-35.28C25.15-2.61-12.92,88.16,37.11,144.92c28.76,35.95,69.29,70.58,82.94,94.3,28.85-45.97,159.05-137.19,84.75-204.31Z"/>
  <g>
    <path class="cls-3" d="M49.6,298h-4.07l-1.26-2.66c-1.26,1.22-2.22,1.81-3.74,2.33-2.29.78-5,1.18-8.14,1.18-10.47,0-16.32-4.66-16.32-13.02,0-4.25,1.7-7.96,4.66-10.06,2.89-2.07,7.07-3.15,12.14-3.15,5.33,0,9.88,1.15,12.69,3.18,2.48,1.78,3.59,3.52,4.03,6.33h-11.21c-.81-2.18-2.59-3.22-5.4-3.22-4.07,0-6.51,2.48-6.51,6.66,0,4.51,2.66,7.03,7.51,7.03,3.18,0,4.96-.92,5.66-2.89h-4.18v-5.37h14.14v13.65Z"/>
    <path class="cls-3" d="M53.52,279.53h8.47v1.78c2.22-1.59,4.26-2.26,6.92-2.26,3.66,0,5.81,1.26,6.62,3.85.37,1.15.48,2.4.52,5.25h-8.51c-.11-2.18-.81-3.03-2.59-3.03-2.07,0-2.96,1.29-2.96,4.29v8.66h-8.47v-18.54Z"/>
    <path class="cls-3" d="M104.43,298.07h-8.47v-1.78c-2.96,1.67-5.14,2.26-8.55,2.26-3.15,0-5.37-.63-6.81-1.96-.92-.81-1.52-1.89-1.81-3.26-.15-.81-.22-1.92-.22-4.55v-9.25h8.47v7.66c0,2.15.19,3.22.63,4.03.52.89,1.78,1.41,3.4,1.41,2,0,3.52-.74,4.26-2.07.44-.78.63-1.81.63-3.37v-7.66h8.47v18.54Z"/>
    <path class="cls-3" d="M108.43,279.53h8.14v2.33c2.48-1.96,5.14-2.81,8.81-2.81s5.92.81,7.7,2.81c2.74-2.04,5.37-2.81,9.36-2.81,3.44,0,5.77.81,7.18,2.44,1.29,1.48,1.78,3.33,1.78,6.66v9.92h-8.47v-7.1c0-2.7-.26-4-.92-4.81-.67-.78-1.74-1.18-3.18-1.18-1.7,0-3.15.63-3.89,1.63-.52.78-.81,2.04-.81,3.7v7.77h-8.47v-7.14c0-2.85-.15-3.7-.67-4.59-.55-.85-1.81-1.37-3.37-1.37-1.74,0-3.26.67-3.96,1.81-.52.78-.74,1.89-.74,3.48v7.81h-8.47v-18.54Z"/>
    <path class="cls-3" d="M163.85,273.39v7.44c2.66-1.26,4.81-1.78,7.59-1.78,7.1,0,11.62,3.74,11.62,9.58,0,6.14-4.4,9.92-11.51,9.92-3.22,0-5.14-.63-7.92-2.52l.22,2.04h-8.47v-24.68h8.47ZM163.82,288.82c0,2.48,1.74,3.85,4.88,3.85s4.92-1.37,4.92-3.81-1.78-3.77-4.88-3.77-4.92,1.41-4.92,3.74Z"/>
    <path class="cls-3" d="M186.24,273.39h8.47v24.68h-8.47v-24.68Z"/>
    <path class="cls-3" d="M225.79,292.67c-.63,2.26-1.52,3.4-3.37,4.4-2.33,1.22-5.22,1.78-9.47,1.78-5.03,0-8.73-.74-11.14-2.18-2.44-1.48-3.92-4.55-3.92-8.03,0-3.07,1.18-5.74,3.15-7.14,2.48-1.74,6.44-2.74,10.92-2.74,6.07,0,10.62,1.81,12.43,4.92.96,1.67,1.33,3.44,1.41,7.4h-18.54c.37,1.18.74,1.7,1.52,2.15.92.48,2.15.74,3.77.74,1.89,0,2.7-.3,3.59-1.29h9.66ZM216.65,286.38c-.56-1.74-2.07-2.59-4.63-2.59s-4.07.81-4.7,2.59h9.32Z"/>
  </g>
</svg>