<?xml version="1.0" encoding="UTF-8"?>
<svg id="_2" data-name="2" xmlns="http://www.w3.org/2000/svg" viewBox="0 0 476 161">
  <defs>
    <style>
      .cls-1 {
        fill: none;
      }

      .cls-1, .cls-2, .cls-3 {
        stroke-width: 0px;
      }

      .cls-2 {
        fill: #2ec4b6;
      }

      .cls-3 {
        fill: #fff;
      }
    </style>
  </defs>
  <path class="cls-2" d="M125.26,26.92c-13.27-11.05-39.37-8.77-40.83,10.01,0,0,0,7.24,0,7.24,9.86,6.77,18.83,19.22,17.57,31.04-1.35,7.32-8.17,34.17-16.35,34.93l3.66-33.83h-4.57l-3.66,33.97h-7.16l-3.66-33.97h-4.57l3.66,33.83c-8.16-.71-15.02-27.63-16.35-34.93-1.26-11.85,7.78-24.43,17.72-31.13.42-7.43.04-16-7.49-19.88C24.01,5.78,2.55,56.94,30.75,88.92c16.21,20.26,39.05,39.78,46.74,53.15,16.26-25.91,89.64-77.32,47.77-115.15Z"/>
  <g>
    <path class="cls-3" d="M201.02,96.44h-5.82l-1.8-3.81c-1.8,1.75-3.18,2.59-5.35,3.33-3.28,1.11-7.15,1.69-11.65,1.69-14.98,0-23.34-6.67-23.34-18.63,0-6.09,2.44-11.38,6.67-14.4,4.13-2.96,10.11-4.5,17.36-4.5,7.62,0,14.13,1.64,18.16,4.55,3.55,2.54,5.13,5.03,5.77,9.05h-16.04c-1.16-3.12-3.71-4.6-7.73-4.6-5.82,0-9.32,3.55-9.32,9.53,0,6.46,3.81,10.06,10.75,10.06,4.55,0,7.09-1.32,8.1-4.13h-5.98v-7.68h20.22v19.53Z"/>
    <path class="cls-3" d="M206.63,70.03h12.12v2.54c3.18-2.28,6.09-3.23,9.9-3.23,5.24,0,8.31,1.8,9.48,5.5.53,1.64.69,3.44.74,7.52h-12.17c-.16-3.12-1.16-4.34-3.71-4.34-2.96,0-4.23,1.85-4.23,6.14v12.39h-12.12v-26.52Z"/>
    <path class="cls-3" d="M279.47,96.54h-12.12v-2.54c-4.23,2.38-7.36,3.23-12.23,3.23-4.5,0-7.68-.9-9.74-2.81-1.32-1.16-2.17-2.7-2.59-4.66-.21-1.16-.32-2.75-.32-6.51v-13.23h12.12v10.96c0,3.07.26,4.6.9,5.77.74,1.27,2.54,2.01,4.87,2.01,2.86,0,5.03-1.06,6.09-2.96.64-1.11.9-2.59.9-4.82v-10.96h12.12v26.52Z"/>
    <path class="cls-3" d="M285.19,70.03h11.65v3.33c3.55-2.81,7.36-4.02,12.6-4.02s8.47,1.16,11.01,4.02c3.92-2.91,7.68-4.02,13.39-4.02,4.92,0,8.26,1.16,10.27,3.49,1.85,2.12,2.54,4.76,2.54,9.53v14.19h-12.12v-10.16c0-3.86-.37-5.72-1.32-6.88-.95-1.11-2.49-1.69-4.55-1.69-2.43,0-4.5.9-5.56,2.33-.74,1.11-1.16,2.91-1.16,5.29v11.12h-12.12v-10.22c0-4.08-.21-5.29-.95-6.56-.79-1.22-2.59-1.96-4.82-1.96-2.49,0-4.66.95-5.66,2.59-.74,1.11-1.06,2.7-1.06,4.98v11.17h-12.12v-26.52Z"/>
    <path class="cls-3" d="M364.49,61.24v10.64c3.81-1.8,6.88-2.54,10.85-2.54,10.16,0,16.62,5.35,16.62,13.71,0,8.79-6.3,14.19-16.46,14.19-4.6,0-7.36-.9-11.33-3.6l.32,2.91h-12.12v-35.31h12.12ZM364.44,83.31c0,3.55,2.49,5.51,6.99,5.51s7.04-1.96,7.04-5.45-2.54-5.4-6.99-5.4-7.04,2.01-7.04,5.35Z"/>
    <path class="cls-3" d="M396.52,61.24h12.12v35.31h-12.12v-35.31Z"/>
    <path class="cls-3" d="M453.1,88.82c-.9,3.23-2.17,4.87-4.82,6.3-3.33,1.75-7.46,2.54-13.55,2.54-7.2,0-12.49-1.06-15.93-3.12-3.49-2.12-5.61-6.51-5.61-11.49,0-4.39,1.69-8.2,4.5-10.22,3.55-2.49,9.21-3.92,15.61-3.92,8.68,0,15.19,2.59,17.79,7.04,1.38,2.38,1.91,4.92,2.01,10.59h-26.52c.53,1.69,1.06,2.44,2.17,3.07,1.32.69,3.07,1.06,5.4,1.06,2.7,0,3.86-.42,5.13-1.85h13.82ZM440.03,79.82c-.79-2.49-2.96-3.71-6.62-3.71s-5.82,1.16-6.72,3.71h13.34Z"/>
  </g>
  <rect class="cls-1" width="476" height="161"/>
</svg>